<svg xmlns="http://www.w3.org/2000/svg" xmlns:xlink="http://www.w3.org/1999/xlink" width="475" zoomAndPan="magnify" viewBox="0 0 356.25 79.499998" height="106" preserveAspectRatio="xMidYMid meet" version="1.0"><defs><g/><clipPath id="9c58579537"><path d="M 36.761719 12.625 L 151.613281 12.625 L 151.613281 66.933594 L 36.761719 66.933594 Z M 36.761719 12.625 " clip-rule="nonzero"/></clipPath><clipPath id="7e246b4afc"><path d="M 1.417969 1.121094 L 29.742188 1.121094 L 29.742188 78 L 1.417969 78 Z M 1.417969 1.121094 " clip-rule="nonzero"/></clipPath></defs><g clip-path="url(#9c58579537)"><path fill="#000000" d="M 36.761719 12.625 L 151.613281 12.625 L 151.613281 66.933594 L 36.761719 66.933594 Z M 36.761719 12.625 " fill-opacity="1" fill-rule="nonzero"/></g><g fill="#ffffff" fill-opacity="1"><g transform="translate(50.305448, 47.880096)"><g><path d="M 0.90625 -2.765625 C 1.238281 -2.535156 1.695312 -2.320312 2.28125 -2.125 C 2.863281 -1.925781 3.554688 -1.828125 4.359375 -1.828125 C 5.171875 -1.828125 5.835938 -1.957031 6.359375 -2.21875 C 6.878906 -2.488281 7.273438 -2.898438 7.546875 -3.453125 C 7.828125 -4.003906 8.019531 -4.703125 8.125 -5.546875 C 8.226562 -6.398438 8.28125 -7.410156 8.28125 -8.578125 L 8.28125 -18.5 L 10.640625 -18.5 L 10.640625 -9.09375 C 10.640625 -7.71875 10.566406 -6.457031 10.421875 -5.3125 C 10.285156 -4.164062 10.007812 -3.171875 9.59375 -2.328125 C 9.175781 -1.484375 8.550781 -0.835938 7.71875 -0.390625 C 6.894531 0.0546875 5.800781 0.28125 4.4375 0.28125 C 3.5625 0.28125 2.789062 0.1875 2.125 0 C 1.46875 -0.1875 0.863281 -0.472656 0.3125 -0.859375 Z M 0.90625 -2.765625 "/></g></g></g><g fill="#ffffff" fill-opacity="1"><g transform="translate(64.926799, 47.880096)"><g><path d="M 14.78125 -2.078125 L 14.78125 0 L 2.21875 0 L 2.21875 -18.5 L 14.546875 -18.5 L 14.546875 -16.421875 L 4.5625 -16.421875 L 4.5625 -10.421875 L 13.234375 -10.421875 L 13.234375 -8.46875 L 4.5625 -8.46875 L 4.5625 -2.078125 Z M 14.78125 -2.078125 "/></g></g></g><g fill="#ffffff" fill-opacity="1"><g transform="translate(82.675675, 47.880096)"><g><path d="M 13.078125 -14.625 C 12.867188 -14.863281 12.59375 -15.09375 12.25 -15.3125 C 11.90625 -15.539062 11.515625 -15.742188 11.078125 -15.921875 C 10.640625 -16.109375 10.164062 -16.257812 9.65625 -16.375 C 9.144531 -16.488281 8.609375 -16.546875 8.046875 -16.546875 C 6.628906 -16.546875 5.582031 -16.273438 4.90625 -15.734375 C 4.226562 -15.203125 3.890625 -14.46875 3.890625 -13.53125 C 3.890625 -12.863281 4.0625 -12.335938 4.40625 -11.953125 C 4.75 -11.578125 5.28125 -11.265625 6 -11.015625 C 6.726562 -10.773438 7.644531 -10.523438 8.75 -10.265625 C 10.039062 -9.992188 11.15625 -9.65625 12.09375 -9.25 C 13.03125 -8.851562 13.75 -8.316406 14.25 -7.640625 C 14.757812 -6.972656 15.015625 -6.085938 15.015625 -4.984375 C 15.015625 -4.097656 14.84375 -3.328125 14.5 -2.671875 C 14.164062 -2.015625 13.691406 -1.472656 13.078125 -1.046875 C 12.472656 -0.628906 11.757812 -0.316406 10.9375 -0.109375 C 10.125 0.0859375 9.238281 0.1875 8.28125 0.1875 C 7.34375 0.1875 6.425781 0.0859375 5.53125 -0.109375 C 4.644531 -0.316406 3.800781 -0.609375 3 -0.984375 C 2.195312 -1.367188 1.445312 -1.847656 0.75 -2.421875 L 1.875 -4.40625 C 2.15625 -4.113281 2.515625 -3.820312 2.953125 -3.53125 C 3.398438 -3.238281 3.90625 -2.972656 4.46875 -2.734375 C 5.03125 -2.492188 5.640625 -2.296875 6.296875 -2.140625 C 6.960938 -1.992188 7.644531 -1.921875 8.34375 -1.921875 C 9.664062 -1.921875 10.691406 -2.160156 11.421875 -2.640625 C 12.148438 -3.117188 12.515625 -3.820312 12.515625 -4.75 C 12.515625 -5.4375 12.304688 -5.988281 11.890625 -6.40625 C 11.484375 -6.820312 10.878906 -7.171875 10.078125 -7.453125 C 9.285156 -7.734375 8.316406 -8.007812 7.171875 -8.28125 C 5.921875 -8.59375 4.867188 -8.9375 4.015625 -9.3125 C 3.160156 -9.6875 2.519531 -10.175781 2.09375 -10.78125 C 1.664062 -11.394531 1.453125 -12.1875 1.453125 -13.15625 C 1.453125 -14.34375 1.738281 -15.34375 2.3125 -16.15625 C 2.882812 -16.976562 3.675781 -17.597656 4.6875 -18.015625 C 5.695312 -18.429688 6.835938 -18.640625 8.109375 -18.640625 C 8.941406 -18.640625 9.71875 -18.550781 10.4375 -18.375 C 11.15625 -18.195312 11.828125 -17.953125 12.453125 -17.640625 C 13.078125 -17.328125 13.648438 -16.957031 14.171875 -16.53125 Z M 13.078125 -14.625 "/></g></g></g><g fill="#ffffff" fill-opacity="1"><g transform="translate(100.5288, 47.880096)"><g><path d="M 9.859375 0.125 C 8.378906 0.125 7.132812 -0.128906 6.125 -0.640625 C 5.113281 -1.148438 4.300781 -1.84375 3.6875 -2.71875 C 3.082031 -3.601562 2.640625 -4.597656 2.359375 -5.703125 C 2.085938 -6.816406 1.953125 -7.960938 1.953125 -9.140625 L 1.953125 -18.5 L 4.296875 -18.5 L 4.296875 -9.140625 C 4.296875 -8.242188 4.382812 -7.363281 4.5625 -6.5 C 4.75 -5.644531 5.050781 -4.875 5.46875 -4.1875 C 5.882812 -3.507812 6.445312 -2.972656 7.15625 -2.578125 C 7.875 -2.179688 8.765625 -1.984375 9.828125 -1.984375 C 10.898438 -1.984375 11.789062 -2.1875 12.5 -2.59375 C 13.21875 -3 13.785156 -3.546875 14.203125 -4.234375 C 14.617188 -4.921875 14.914062 -5.6875 15.09375 -6.53125 C 15.28125 -7.382812 15.375 -8.253906 15.375 -9.140625 L 15.375 -18.5 L 17.71875 -18.5 L 17.71875 -9.140625 C 17.71875 -7.890625 17.570312 -6.703125 17.28125 -5.578125 C 17 -4.460938 16.546875 -3.476562 15.921875 -2.625 C 15.296875 -1.78125 14.484375 -1.109375 13.484375 -0.609375 C 12.484375 -0.117188 11.273438 0.125 9.859375 0.125 Z M 9.859375 0.125 "/></g></g></g><g fill="#ffffff" fill-opacity="1"><g transform="translate(122.187089, 47.880096)"><g><path d="M 13.078125 -14.625 C 12.867188 -14.863281 12.59375 -15.09375 12.25 -15.3125 C 11.90625 -15.539062 11.515625 -15.742188 11.078125 -15.921875 C 10.640625 -16.109375 10.164062 -16.257812 9.65625 -16.375 C 9.144531 -16.488281 8.609375 -16.546875 8.046875 -16.546875 C 6.628906 -16.546875 5.582031 -16.273438 4.90625 -15.734375 C 4.226562 -15.203125 3.890625 -14.46875 3.890625 -13.53125 C 3.890625 -12.863281 4.0625 -12.335938 4.40625 -11.953125 C 4.75 -11.578125 5.28125 -11.265625 6 -11.015625 C 6.726562 -10.773438 7.644531 -10.523438 8.75 -10.265625 C 10.039062 -9.992188 11.15625 -9.65625 12.09375 -9.25 C 13.03125 -8.851562 13.75 -8.316406 14.25 -7.640625 C 14.757812 -6.972656 15.015625 -6.085938 15.015625 -4.984375 C 15.015625 -4.097656 14.84375 -3.328125 14.5 -2.671875 C 14.164062 -2.015625 13.691406 -1.472656 13.078125 -1.046875 C 12.472656 -0.628906 11.757812 -0.316406 10.9375 -0.109375 C 10.125 0.0859375 9.238281 0.1875 8.28125 0.1875 C 7.34375 0.1875 6.425781 0.0859375 5.53125 -0.109375 C 4.644531 -0.316406 3.800781 -0.609375 3 -0.984375 C 2.195312 -1.367188 1.445312 -1.847656 0.75 -2.421875 L 1.875 -4.40625 C 2.15625 -4.113281 2.515625 -3.820312 2.953125 -3.53125 C 3.398438 -3.238281 3.90625 -2.972656 4.46875 -2.734375 C 5.03125 -2.492188 5.640625 -2.296875 6.296875 -2.140625 C 6.960938 -1.992188 7.644531 -1.921875 8.34375 -1.921875 C 9.664062 -1.921875 10.691406 -2.160156 11.421875 -2.640625 C 12.148438 -3.117188 12.515625 -3.820312 12.515625 -4.75 C 12.515625 -5.4375 12.304688 -5.988281 11.890625 -6.40625 C 11.484375 -6.820312 10.878906 -7.171875 10.078125 -7.453125 C 9.285156 -7.734375 8.316406 -8.007812 7.171875 -8.28125 C 5.921875 -8.59375 4.867188 -8.9375 4.015625 -9.3125 C 3.160156 -9.6875 2.519531 -10.175781 2.09375 -10.78125 C 1.664062 -11.394531 1.453125 -12.1875 1.453125 -13.15625 C 1.453125 -14.34375 1.738281 -15.34375 2.3125 -16.15625 C 2.882812 -16.976562 3.675781 -17.597656 4.6875 -18.015625 C 5.695312 -18.429688 6.835938 -18.640625 8.109375 -18.640625 C 8.941406 -18.640625 9.71875 -18.550781 10.4375 -18.375 C 11.15625 -18.195312 11.828125 -17.953125 12.453125 -17.640625 C 13.078125 -17.328125 13.648438 -16.957031 14.171875 -16.53125 Z M 13.078125 -14.625 "/></g></g></g><g fill="#000000" fill-opacity="1"><g transform="translate(154.31108, 47.880096)"><g><path d="M 9.773438 0.390625 C 14.699219 0.390625 17.75 -2.605469 17.75 -7.507812 L 17.75 -18.246094 L 12.511719 -18.246094 L 12.511719 -7.84375 C 12.511719 -5.683594 11.597656 -4.535156 9.773438 -4.535156 C 7.949219 -4.535156 7.039062 -5.683594 7.039062 -7.84375 L 7.039062 -18.246094 L 1.773438 -18.246094 L 1.773438 -7.507812 C 1.773438 -2.605469 4.847656 0.390625 9.773438 0.390625 Z M 9.773438 0.390625 "/></g></g></g><g fill="#000000" fill-opacity="1"><g transform="translate(173.858121, 47.880096)"><g><path d="M 0.9375 0 L 15.402344 0 L 15.402344 -4.640625 L 7.636719 -4.640625 L 15.222656 -14.464844 L 15.222656 -18.246094 L 1.226562 -18.246094 L 1.226562 -13.605469 L 8.523438 -13.605469 L 0.9375 -3.777344 Z M 0.9375 0 "/></g></g></g><g fill="#000000" fill-opacity="1"><g transform="translate(190.225506, 47.880096)"><g><path d="M 10.453125 0.390625 C 15.480469 0.390625 19.285156 -2.660156 20.070312 -7.296875 L 14.726562 -7.296875 C 14.074219 -5.578125 12.535156 -4.484375 10.554688 -4.484375 C 8 -4.484375 6.230469 -6.386719 6.230469 -9.121094 C 6.230469 -11.886719 8.027344 -13.761719 10.609375 -13.761719 C 12.511719 -13.761719 14.101562 -12.691406 14.648438 -11.050781 L 19.964844 -11.050781 C 19.027344 -15.664062 15.273438 -18.636719 10.398438 -18.636719 C 4.769531 -18.636719 0.886719 -14.753906 0.886719 -9.121094 C 0.886719 -3.492188 4.769531 0.390625 10.453125 0.390625 Z M 10.453125 0.390625 "/></g></g></g><g fill="#000000" fill-opacity="1"><g transform="translate(211.127803, 47.880096)"><g><path d="M 0.128906 0 L 5.707031 0 L 6.699219 -2.582031 L 12.925781 -2.582031 L 13.917969 0 L 19.523438 0 L 12.433594 -18.246094 L 7.21875 -18.246094 Z M 7.792969 -6.4375 L 9.824219 -12.09375 L 11.859375 -6.4375 Z M 7.792969 -6.4375 "/></g></g></g><g fill="#000000" fill-opacity="1"><g transform="translate(230.779095, 47.880096)"><g><path d="M 6.28125 0 L 11.519531 0 L 11.519531 -13.371094 L 17.070312 -13.371094 L 17.070312 -18.246094 L 0.730469 -18.246094 L 0.730469 -13.371094 L 6.28125 -13.371094 Z M 6.28125 0 "/></g></g></g><g fill="#000000" fill-opacity="1"><g transform="translate(248.579935, 47.880096)"><g><path d="M 1.929688 0 L 14.726562 0 L 14.726562 -4.300781 L 7.140625 -4.300781 L 7.140625 -7.117188 L 13.734375 -7.117188 L 13.734375 -11.335938 L 7.140625 -11.335938 L 7.140625 -13.996094 L 14.4375 -13.996094 L 14.4375 -18.246094 L 1.929688 -18.246094 Z M 1.929688 0 "/></g></g></g><g fill="#000000" fill-opacity="1"><g transform="translate(264.47819, 47.880096)"><g><path d="M 10.632812 0.390625 C 16.914062 0.390625 20.851562 -4.171875 20.277344 -10.582031 L 9.722656 -10.582031 L 9.722656 -6.878906 L 14.753906 -6.878906 C 14.230469 -5.34375 12.769531 -4.300781 10.6875 -4.300781 C 7.765625 -4.300781 6.074219 -6.359375 6.074219 -9.121094 C 6.074219 -11.988281 7.921875 -13.945312 10.632812 -13.945312 C 12.25 -13.945312 13.632812 -13.242188 14.335938 -12.09375 L 19.9375 -12.09375 C 18.871094 -16.082031 15.167969 -18.636719 10.554688 -18.636719 C 4.820312 -18.636719 0.886719 -14.726562 0.886719 -9.121094 C 0.886719 -3.492188 4.847656 0.390625 10.632812 0.390625 Z M 10.632812 0.390625 "/></g></g></g><g fill="#000000" fill-opacity="1"><g transform="translate(285.641124, 47.880096)"><g><path d="M 9.773438 0.390625 C 14.699219 0.390625 17.75 -2.605469 17.75 -7.507812 L 17.75 -18.246094 L 12.511719 -18.246094 L 12.511719 -7.84375 C 12.511719 -5.683594 11.597656 -4.535156 9.773438 -4.535156 C 7.949219 -4.535156 7.039062 -5.683594 7.039062 -7.84375 L 7.039062 -18.246094 L 1.773438 -18.246094 L 1.773438 -7.507812 C 1.773438 -2.605469 4.847656 0.390625 9.773438 0.390625 Z M 9.773438 0.390625 "/></g></g></g><g fill="#000000" fill-opacity="1"><g transform="translate(305.188165, 47.880096)"><g><path d="M 1.929688 0 L 7.195312 0 L 7.195312 -18.246094 L 1.929688 -18.246094 Z M 1.929688 0 "/></g></g></g><g clip-path="url(#7e246b4afc)"><path fill="#000000" d="M 28.664062 75.332031 C 25.136719 74.910156 21.0625 76.300781 17.828125 74.34375 C 14.679688 72.4375 15 67.9375 15.144531 64.761719 C 15.472656 57.585938 17.1875 48.996094 12.269531 42.890625 C 11.101562 41.441406 9.621094 40.265625 7.964844 39.53125 C 9.03125 38.960938 10.015625 38.21875 10.871094 37.367188 C 13.386719 34.859375 14.761719 31.476562 15.304688 28 C 15.914062 24.074219 15.527344 20.125 15.238281 16.191406 C 15.089844 14.164062 14.96875 12.132812 15.058594 10.101562 C 15.125 8.632812 15.296875 6.875 16.316406 5.730469 C 17.5 4.398438 19.515625 4.0625 21.203125 4.023438 C 23.472656 3.972656 25.710938 4.328125 27.976562 4.058594 C 28.871094 3.949219 29.628906 1.730469 28.386719 1.882812 C 24.832031 2.308594 21.175781 1.121094 17.777344 2.6875 C 14.511719 4.191406 13.46875 7.730469 13.320312 11.070312 C 13.140625 15.148438 13.78125 19.199219 13.886719 23.265625 C 13.976562 26.855469 13.664062 30.683594 11.800781 33.835938 C 10.007812 36.875 6.546875 38.9375 2.992188 38.441406 C 2.222656 38.332031 1.414062 39.84375 1.789062 40.429688 C 1.8125 40.769531 1.996094 41.011719 2.4375 40.949219 C 5.648438 40.5 8.792969 42.261719 10.769531 44.714844 C 13.0625 47.558594 13.820312 51.304688 13.945312 54.878906 C 14.082031 58.871094 13.464844 62.839844 13.367188 66.824219 C 13.289062 70.054688 13.339844 74.078125 16.222656 76.171875 C 19.585938 78.621094 24.039062 77.089844 27.828125 77.546875 C 28.757812 77.660156 29.730469 75.460938 28.664062 75.332031 Z M 28.664062 75.332031 " fill-opacity="1" fill-rule="nonzero"/></g><path fill="#000000" d="M 326.832031 3.453125 C 330.359375 3.875 334.429688 2.484375 337.667969 4.445312 C 340.8125 6.347656 340.496094 10.851562 340.351562 14.027344 C 340.023438 21.199219 338.308594 29.789062 343.226562 35.898438 C 344.394531 37.34375 345.875 38.519531 347.53125 39.257812 C 346.464844 39.824219 345.480469 40.566406 344.621094 41.421875 C 342.109375 43.925781 340.734375 47.308594 340.191406 50.789062 C 339.582031 54.710938 339.96875 58.664062 340.257812 62.597656 C 340.40625 64.621094 340.527344 66.65625 340.4375 68.683594 C 340.371094 70.152344 340.199219 71.910156 339.179688 73.054688 C 337.996094 74.386719 335.980469 74.722656 334.292969 74.761719 C 332.023438 74.8125 329.785156 74.457031 327.515625 74.730469 C 326.625 74.835938 325.867188 77.054688 327.109375 76.90625 C 330.664062 76.480469 334.320312 77.667969 337.714844 76.101562 C 340.984375 74.59375 342.027344 71.054688 342.175781 67.714844 C 342.355469 63.640625 341.710938 59.589844 341.609375 55.519531 C 341.515625 51.933594 341.832031 48.105469 343.691406 44.949219 C 345.488281 41.910156 348.945312 39.847656 352.503906 40.347656 C 353.273438 40.453125 354.082031 38.945312 353.707031 38.355469 C 353.683594 38.015625 353.496094 37.773438 353.058594 37.835938 C 349.847656 38.285156 346.703125 36.523438 344.722656 34.070312 C 342.433594 31.226562 341.675781 27.484375 341.550781 23.910156 C 341.414062 19.914062 342.03125 15.945312 342.128906 11.960938 C 342.207031 8.730469 342.15625 4.710938 339.273438 2.613281 C 335.910156 0.164062 331.457031 1.695312 327.664062 1.242188 C 326.734375 1.125 325.765625 3.324219 326.832031 3.453125 Z M 326.832031 3.453125 " fill-opacity="1" fill-rule="nonzero"/><path stroke-linecap="butt" transform="matrix(0.7459, 0, 0, 0.745312, 36.761126, 1.120259)" fill="none" stroke-linejoin="miter" d="M 0.000794342 1.500071 L 376.706026 1.500071 " stroke="#000000" stroke-width="3" stroke-opacity="1" stroke-miterlimit="4"/><path stroke-linecap="butt" transform="matrix(0.7459, 0, 0, 0.745312, 36.761126, 75.436741)" fill="none" stroke-linejoin="miter" d="M 0.000794342 1.499971 L 376.706026 1.499971 " stroke="#000000" stroke-width="3" stroke-opacity="1" stroke-miterlimit="4"/></svg>